<?xml version="1.0" encoding="iso-8859-1"?>
<!-- Uploaded to: SVG Repo, www.svgrepo.com, Generator: SVG Repo Mixer Tools -->
<svg version="1.1" id="Layer_1" xmlns="http://www.w3.org/2000/svg" xmlns:xlink="http://www.w3.org/1999/xlink" 
	 viewBox="0 0 470 385" xml:space="preserve">
<path style="fill:#5D9CEC;" d="M425.754,191.497c0,105.764-85.732,191.497-191.497,191.497
	c-105.764,0-191.497-85.732-191.497-191.497C42.76,85.733,128.493,0,234.257,0C340.021,0,425.754,85.734,425.754,191.497z"/>
<g>
	<path style="fill:#A0D468;" d="M388.91,171.17c-37.701,2.867-49.795-19.234-44.826-25.984c8.594-11.695,49.498,16.719,52.201-4.336
		c0.484-3.695,9.734-13.335,17.875-15.132c-18.562-50.733-57.967-91.412-107.841-111.686c-1.703,5.742-3.203,10.484-4.031,10.891
		c-28.75,13.977-62.718,20.468-83.109,47.335c-2.859,3.773-6.641,10.898-2.547,15.398c5.062,5.578,18.594-0.156,25.234,0.328
		c18.468,1.328,70.546,13.453,72.234,21.89c1.688,8.429-19.766,24.39-40.734,12.82c-6.172-3.406-30.828-7.648-39.203-9.156
		c-5.859-1.047-56.405,5.296-54.155,65.39c0.906,24.374,16.156,40.053,40.733,40.334c20.391,0.234,41.031-2.148,47.703,21.984
		c5.656,20.453,3.5,41.625,8.547,61.984c2.031,8.188,6.359,19.688,16.734,20.578c15.734,1.359,26.312-9.219,35.765-20.188
		c7.531-8.766,17.047-16.375,22.672-26.625c8.905-16.273,6.453-35.648,15.874-51.945C375.629,211.903,400.832,170.256,388.91,171.17
		z"/>
	<path style="fill:#A0D468;" d="M104.212,228.801c-6-8.711-12.875-17.148-19.03-25.742c-5.75-8.007-28.172-44.413-38.562-50.007
		c-2.531,12.422-3.859,25.273-3.859,38.445c0,46.608,16.656,89.327,44.328,122.53c0.703,0.859,17.343-11.5,18.812-12.75
		c6.141-5.219,11.281-11.594,13.594-19.422C124.853,263.598,114.306,243.481,104.212,228.801z"/>
</g>
<g style="opacity:0.2;">
	<path style="fill:#FFFFFF;" d="M234.257,0c-3.594,0-7.141,0.102-10.688,0.297c100.795,5.547,180.825,89.022,180.825,191.2
		c0,102.186-80.029,185.653-180.825,191.2c3.547,0.203,7.094,0.297,10.688,0.297c105.764,0,191.497-85.732,191.497-191.497
		C425.754,85.734,340.021,0,234.257,0z"/>
</g>
</svg>