<?xml version="1.0" encoding="iso-8859-1"?>
<!-- Generator: Adobe Illustrator 19.0.0, SVG Export Plug-In . SVG Version: 6.00 Build 0)  -->
<svg version="1.1" id="Layer_1" xmlns="http://www.w3.org/2000/svg" xmlns:xlink="http://www.w3.org/1999/xlink" x="0px" y="0px"
	 viewBox="0 0 511.983 511.983" style="enable-background:new 0 0 511.983 511.983;" xml:space="preserve">
<path style="fill:#959DA5;" d="M407.69,57.554c-15.344-6.546-32.421,8.515-43.92,20.421c-11.25,11.624-20.219,23.967-20.594,24.483
	c-3.453,4.766-2.391,11.437,2.375,14.89c4.766,3.453,11.438,2.39,14.891-2.375c0.016-0.016,0.25-0.328,0.656-0.875l30.217,17.546
	c-0.438,1.484-0.688,2.344-0.703,2.375c-1.734,5.625,1.422,11.593,7.062,13.327c1.047,0.328,2.094,0.484,3.141,0.484
	c4.562,0,8.781-2.953,10.188-7.546c0.203-0.656,5.062-16.546,7.906-33.624C421.862,88.88,423.909,64.46,407.69,57.554z"/>
<path style="fill:#AAB2BC;" d="M502.107,286.912c-3.797-3.952-9.046-9.062-15.593-15.194c-8.218-7.672-16.515-15.093-20.265-18.421
	l-19.577-54.232c-0.062-0.141-0.109-0.281-0.172-0.422l-20.515-49.967c-0.344-0.828-0.78-1.625-1.327-2.343
	c-0.453-0.609-11.391-15.015-32.734-29.265c-19.546-13.031-52.092-28.577-96.198-28.577c-24.547,0-50.358,4.781-76.724,14.234
	c-76.989,27.576-207.742,95.62-213.264,98.511c-2.648,1.375-4.602,3.812-5.375,6.703c-0.773,2.875-0.297,5.953,1.305,8.484
	l149.33,234.655c1.733,2.734,4.608,4.531,7.819,4.875c0.391,0.047,0.789,0.062,1.18,0.062c2.805,0,5.516-1.094,7.523-3.094
	l66.732-66.436c66.038-6.906,100.441-42.905,111.832-57.482c16.953,2.938,61.061,10.5,71.654,11.734
	c1.609,0.188,3.281,0.281,4.969,0.281c10.687,0,20.654-3.688,25.201-5.656h39.732c3.219,0,6.25-1.438,8.281-3.922
	c16.062-19.732,16.062-25.732,16.062-28.295C511.982,298.068,508.935,294.037,502.107,286.912z"/>
<path style="fill:#656D78;" d="M463.172,244.781l-27.248-71.903c-1.156-3.047-3.641-5.39-6.734-6.39
	c-3.094-0.984-6.468-0.516-9.171,1.297l-116.104,77.7c-0.891,0.609-1.672,1.328-2.359,2.156c-17.359,21.437-19,42.288-20.438,60.678
	c-1.516,19.217-2.828,35.81-21.507,52.903c-3.68,3.375-4.532,8.844-2.055,13.171c1.945,3.391,5.516,5.359,9.257,5.359
	c1.047,0,2.102-0.141,3.141-0.469c48.663-14.968,72.864-45.404,78.927-54.045l109.902-67.598
	C463.14,254.968,464.984,249.562,463.172,244.781z"/>
<path style="fill:#434A54;" d="M415.987,242.687c0,5.891-4.781,10.672-10.672,10.672s-10.656-4.781-10.656-10.672
	s4.766-10.671,10.656-10.671S415.987,236.796,415.987,242.687z"/>
<path style="fill:#959DA5;" d="M277.32,178.345c0,0-18.14-76.278,19.812-95.652c12.188-6.218,32.826,63.561,32.826,63.561
	L277.32,178.345z"/>
<path style="fill:#434A54;" d="M502.435,323.019c9.547-13.123,9.547-17.717,9.547-19.873c0-5.078-3.047-9.109-9.875-16.234
	c-0.016-0.016-0.031-0.031-0.047-0.047c0,0-20.045,10.531-18.936,18.078C484.233,312.49,502.435,323.019,502.435,323.019z"/>
<path style="fill:#CCD1D9;" d="M277.32,189.017c-4.828,0-9.211-3.297-10.375-8.203c-0.194-0.828-4.835-20.593-4.616-43.123
	c0.219-22.562,5.593-52.061,29.96-64.498c3.859-1.969,8.25-2.078,12.375-0.312c10.374,4.453,18.187,21.733,25.107,39.748
	c5.921,15.437,10.233,29.983,10.421,30.593c1.672,5.656-1.562,11.577-7.203,13.249c-5.655,1.672-11.592-1.547-13.264-7.203
	c-0.031-0.125-3.922-13.218-9.188-27.187c-6.062-16.108-10.312-23.718-12.687-27.202c-11.344,9.156-14.047,28.03-14.188,43.015
	c-0.188,19.952,4,37.81,4.047,37.982c1.359,5.734-2.188,11.484-7.922,12.844C278.961,188.924,278.133,189.017,277.32,189.017z"/>
<g>
</g>
<g>
</g>
<g>
</g>
<g>
</g>
<g>
</g>
<g>
</g>
<g>
</g>
<g>
</g>
<g>
</g>
<g>
</g>
<g>
</g>
<g>
</g>
<g>
</g>
<g>
</g>
<g>
</g>
</svg>
